<?xml version="1.0" encoding="iso-8859-1"?>
<!-- Generator: Adobe Illustrator 19.0.0, SVG Export Plug-In . SVG Version: 6.00 Build 0)  -->
<svg version="1.1" id="Layer_1" xmlns="http://www.w3.org/2000/svg" xmlns:xlink="http://www.w3.org/1999/xlink" x="0px" y="0px"
	 viewBox="0 0 511.999 511.999" style="enable-background:new 0 0 511.999 511.999;" xml:space="preserve">
<g>
	<g>
		<path d="M450.765,245.637c-0.855,0.2-1.738,0.314-2.638,0.314c-0.784,0-1.579-0.079-2.378-0.245l-69.714-14.466
			c-2.426-0.503-4.628-1.767-6.285-3.607l-21.909-24.308c-2.61-2.897-3.598-6.907-2.632-10.684l16.525-64.594
			c-15.744-9.813-32.892-17.499-51.061-22.676c-7.051,20.941-20.652,47.523-40.696,79.481c-11.601,18.496-23.097,35.2-31.607,47.169
			h7.801c6.433,0,11.647,5.215,11.647,11.647c0,6.433-5.215,11.647-11.647,11.647h-30.671c-0.016,0-0.033,0-0.049,0h-31.313
			c-6.433,0-11.647-5.215-11.647-11.647c0-6.433,5.215-11.647,11.647-11.647h8.167c-8.532-11.809-19.994-28.203-31.566-46.359
			c-10.804-16.952-19.749-32.388-26.828-46.275c-38.914,29.889-66.998,73.672-77.076,124.055l56.299,71.979l49.371,19.18
			c5.065,1.967,8.097,7.177,7.305,12.554l-16.827,114.289c-0.085,0.58-0.222,1.138-0.388,1.682
			c30.314,18.331,65.668,28.875,103.401,28.875c30.364,0,59.187-6.832,85.085-19.048l3.246-63.279l-41.562-7.002
			c-4.498-0.757-8.139-4.072-9.318-8.478l-15.525-58.089c-0.628-2.349-0.504-4.835,0.352-7.11l24.821-65.943
			c1.327-3.525,4.275-6.189,7.914-7.155l78.021-20.698c2.074-0.551,4.261-0.518,6.318,0.097l61.594,18.384
			C455.519,264.099,453.436,254.74,450.765,245.637z"/>
	</g>
</g>
<g>
	<g>
		<path d="M101.718,355.975c-1.953-0.758-3.665-2.03-4.957-3.681l-43.822-56.028c-0.115,2.857-0.189,5.724-0.189,8.609
			c0,66.382,30.809,125.564,78.615,163.495l14.05-95.421L101.718,355.975z"/>
	</g>
</g>
<g>
	<g>
		<path d="M382.076,142.531l-12.75,49.837l15.177,16.84l57.367,11.904C428.411,190.222,407.756,163.286,382.076,142.531z"/>
	</g>
</g>
<g>
	<g>
		<path d="M459.149,298.647l-67.315-20.093l-69.047,18.317l-21.389,56.829l12.626,47.243l44.406,7.482
			c5.831,0.982,9.999,6.177,9.697,12.082l-3.029,59.055c56.567-36.816,94.153-101.361,94.153-174.687
			C459.249,302.791,459.21,300.716,459.149,298.647z"/>
	</g>
</g>
<g>
	<g>
		<path d="M270.218,22.211C255.577,7.885,236.03,0,215.166,0c-0.049,0-0.098,0-0.147,0c-20.809,0.037-40.357,8.174-55.045,22.912
			c-14.687,14.738-22.756,34.311-22.718,55.115c0.058,33.206,50,107.949,78.116,146.163
			c27.978-38.673,77.743-114.366,77.684-147.597C293.02,55.898,284.909,36.586,270.218,22.211z M239.739,106.297
			c-6.547,6.569-15.259,10.196-24.533,10.214c-0.021,0-0.043,0-0.064,0c-9.252,0-17.952-3.594-24.507-10.126
			c-6.569-6.546-10.196-15.259-10.214-24.533c-0.016-9.275,3.579-18.001,10.126-24.57c6.547-6.569,15.259-10.196,24.533-10.214
			c0.021,0,0.043,0,0.064,0c9.252,0,17.952,3.594,24.507,10.126c6.569,6.547,10.196,15.259,10.214,24.533
			C249.882,91.002,246.286,99.728,239.739,106.297z"/>
	</g>
</g>
<g>
</g>
<g>
</g>
<g>
</g>
<g>
</g>
<g>
</g>
<g>
</g>
<g>
</g>
<g>
</g>
<g>
</g>
<g>
</g>
<g>
</g>
<g>
</g>
<g>
</g>
<g>
</g>
<g>
</g>
</svg>
